Land_normalized_Motion_pl04
version=1
nRows=16
nColumns=43
inDegrees=yes
endheader
time		pelvis_tilt		pelvis_list		pelvis_rotation		pelvis_tx		pelvis_ty		pelvis_tz		hip_flexion_r		hip_adduction_r		hip_rotation_r		knee_angle_r		ankle_angle_r		subtalar_angle_r		mtp_angle_r		hip_flexion_l		hip_adduction_l		hip_rotation_l		knee_angle_l		ankle_angle_l		subtalar_angle_l		mtp_angle_l		lumbar_extension		lumbar_bending		lumbar_rotation		neck_flexion		neck_lateral_bending		neck_rotation		arm_flex_r		arm_add_r		arm_rot_r		elbow_flex_r		pro_sup_r		wrist_flex_r		wrist_dev_r		hand_finger_flex_r		arm_flex_l		arm_add_l		arm_rot_l		elbow_flex_l		pro_sup_l		wrist_flex_l		wrist_dev_l		hand_finger_flex_l		
0.825833		-0.884793		12.240808		91.628250		-0.001912		0.457658		0.474898		83.846098		-2.110921		6.381699		-139.948551		25.203082		8.216077		21.903456		86.106434		-4.411078		6.152913		-138.114216		18.126861		20.444882		34.349097		-67.698760		-1.976604		1.831785		24.296267		2.384082		-6.651146		36.768756		-38.603330		-6.152198		109.211876		110.665209		-16.672641		-25.000000		-4.728004		37.026945		-29.041717		-3.690945		87.772533		115.586821		-43.759115		-14.996705		7.613801		
0.828763		-0.951265		12.214999		91.672036		-0.002146		0.454314		0.473559		84.098123		-2.268201		6.661096		-140.456354		25.813617		8.913280		21.798972		86.416408		-4.379046		6.114855		-138.626887		18.488114		20.512283		34.419740		-68.103347		-1.990410		1.702080		24.761034		2.332439		-6.731359		38.045048		-38.679835		-5.539570		109.200644		110.359998		-16.822928		-25.000000		-4.643883		37.902120		-29.168318		-3.530191		88.181283		115.427698		-43.890367		-15.171256		7.745173		
0.831692		-0.987878		12.143277		91.724510		-0.002382		0.451148		0.472338		84.400687		-2.399095		6.847664		-140.910301		26.108533		9.113362		21.774370		86.786948		-4.350663		6.101527		-139.091509		18.651102		20.523057		34.441366		-68.437251		-1.999311		1.699271		25.131058		2.408850		-6.756883		39.175026		-38.755058		-5.162055		109.172678		110.331983		-16.792519		-25.000000		-4.602032		38.936522		-29.072692		-3.305370		88.382214		115.457994		-43.817531		-15.269499		7.811917		
0.834621		-1.052469		12.056746		91.762526		-0.002715		0.448061		0.471127		84.644341		-2.556120		7.245974		-141.343552		26.945869		10.376756		21.502151		87.125945		-4.326123		6.012416		-139.533674		19.030669		20.495277		34.424815		-68.775970		-1.946652		1.414186		25.502966		2.235619		-6.692325		40.682257		-38.688090		-4.150304		109.042703		110.039262		-17.251040		-25.000000		-4.551830		39.560444		-29.213649		-3.478379		88.766394		115.430806		-44.190447		-15.553075		8.062452		
0.837551		-1.079864		11.950242		91.825164		-0.002905		0.445091		0.470001		84.928803		-2.680260		7.414610		-141.736913		27.282374		10.610358		21.425905		87.522995		-4.305682		6.001469		-139.952152		19.201127		20.492845		34.426977		-69.065588		-1.936702		1.392780		25.783644		2.291521		-6.677197		41.776315		-38.775649		-3.736480		109.011859		110.050089		-17.282515		-25.000000		-4.486003		40.468048		-29.137515		-3.313930		89.001824		115.475292		-44.144270		-15.654920		8.178161		
0.840480		-1.089818		11.802905		91.893587		-0.002977		0.442244		0.468955		85.217866		-2.804312		7.510274		-142.094140		27.687156		10.759312		21.399365		87.947987		-4.289351		6.023213		-140.327328		19.424381		20.497106		34.439005		-69.321740		-1.914475		1.393004		26.091332		2.311103		-6.726156		42.800799		-38.845279		-3.391444		109.046322		110.146418		-17.256781		-25.000000		-4.420395		41.375622		-29.026555		-3.183107		89.181977		115.541656		-44.048214		-15.721553		8.267487		
0.843409		-1.086859		11.652092		91.973150		-0.002995		0.439473		0.467939		85.496170		-2.941002		7.597014		-142.434638		28.138969		11.004425		21.369451		88.360717		-4.258252		6.073443		-140.680452		19.671786		20.521419		34.450165		-69.566032		-1.873944		1.395223		26.374437		2.295768		-6.785640		43.807069		-38.873631		-3.051631		109.071322		110.278974		-17.253167		-25.000000		-4.354527		42.210770		-28.897271		-3.107028		89.384930		115.608448		-43.956110		-15.785273		8.360545		
0.846338		-1.089894		11.518455		92.046505		-0.002966		0.436920		0.466921		85.724798		-3.097321		7.772607		-142.779705		28.796406		11.816352		21.096878		88.726912		-4.228654		6.153019		-141.027615		19.982590		20.702717		34.397946		-69.824683		-1.803136		1.288570		26.597924		2.178073		-6.769235		44.946534		-38.744305		-2.506697		109.036654		110.675143		-17.521326		-25.000000		-4.169992		42.810281		-28.836551		-3.313413		89.707890		115.679876		-43.818143		-15.842238		8.654097		
0.849268		-1.090886		11.418768		92.118878		-0.002928		0.434488		0.465924		85.934076		-3.253759		7.913646		-143.123339		29.249309		12.368425		20.859552		89.055959		-4.161721		6.240807		-141.354767		20.196748		20.845380		34.349255		-70.099788		-1.759286		1.230355		26.745366		2.148769		-6.730273		45.955214		-38.629912		-2.112564		109.014511		110.990340		-17.719458		-25.000000		-4.007988		43.442735		-28.739777		-3.416366		89.995808		115.727361		-43.671513		-15.878116		8.890448		
0.852197		-1.085105		11.305912		92.218527		-0.002839		0.432213		0.464968		86.127053		-3.420381		7.917436		-143.429841		29.559344		12.437358		20.824859		89.385169		-4.078873		6.348049		-141.663324		20.362534		20.893101		34.352708		-70.366206		-1.727619		1.256553		26.933027		2.208511		-6.775057		46.783881		-38.651630		-1.895949		109.071969		111.119825		-17.661804		-25.000000		-3.928253		44.239182		-28.572668		-3.288628		90.115449		115.747956		-43.528341		-15.888343		8.953413		
0.855126		-1.054656		11.225662		92.290465		-0.002799		0.430118		0.463982		86.224533		-3.589105		7.914462		-143.733715		30.214907		12.776434		20.680496		89.659082		-4.013737		6.502159		-141.964530		20.640409		21.141028		34.332837		-70.660311		-1.651703		1.294436		27.092910		2.116822		-6.900797		47.641399		-38.680465		-1.602682		109.186621		111.422483		-17.688874		-25.000000		-3.761026		44.860385		-28.464160		-3.295556		90.312321		115.772780		-43.353597		-15.943130		9.078407		
0.858056		-1.067809		11.146000		92.362035		-0.002805		0.428240		0.463065		86.345358		-3.716280		7.953713		-144.001244		30.426343		12.844925		20.636914		89.914750		-3.917754		6.584205		-142.228397		20.719682		21.220144		34.329436		-70.951566		-1.638635		1.307151		27.223621		2.189046		-6.941287		48.389601		-38.557604		-1.475257		109.220354		111.508636		-17.674259		-25.000000		-3.716458		45.574348		-28.220722		-3.237949		90.387222		115.774945		-43.270882		-15.957421		9.101952		
0.860985		-1.076315		11.066365		92.455930		-0.002826		0.426497		0.462154		86.416463		-3.874857		7.937468		-144.249318		30.822878		12.929946		20.582819		90.159081		-3.837080		6.666090		-142.482916		20.823377		21.354466		34.325829		-71.248595		-1.594778		1.293637		27.377765		2.240220		-7.030583		49.158907		-38.538192		-1.224569		109.284601		111.642449		-17.639219		-25.000000		-3.647477		46.254774		-28.022989		-3.184284		90.439182		115.792974		-43.198869		-16.003661		9.123982		
0.863914		-1.085343		10.992946		92.529183		-0.002878		0.424912		0.461262		86.462315		-4.015037		7.905807		-144.484794		31.251498		12.976912		20.513070		90.382935		-3.777576		6.731357		-142.710891		20.908303		21.506247		34.321875		-71.552052		-1.554505		1.273900		27.494104		2.271458		-7.135218		49.903988		-38.493993		-0.983264		109.359193		111.760348		-17.632654		-25.000000		-3.587905		46.876308		-27.838113		-3.159356		90.494353		115.808537		-43.174309		-16.069305		9.129531		
0.866843		-1.103317		10.917056		92.601089		-0.002920		0.423479		0.460401		86.505588		-4.152339		7.850289		-144.704381		31.659780		12.956909		20.426171		90.595144		-3.740375		6.772749		-142.915820		20.966621		21.652640		34.319866		-71.853538		-1.518608		1.232269		27.588013		2.315229		-7.245000		50.624918		-38.435763		-0.733466		109.431989		111.853522		-17.640117		-25.000000		-3.537312		47.469797		-27.661511		-3.139573		90.539641		115.812523		-43.188747		-16.138367		9.120539		
0.869773		-1.129723		10.835138		92.661375		-0.002955		0.422169		0.459580		86.555936		-4.290120		7.773740		-144.914110		32.010657		12.872858		20.332196		90.803908		-3.725754		6.785565		-143.086382		21.006530		21.773550		34.322084		-72.155561		-1.497776		1.182024		27.652124		2.374582		-7.347140		51.311042		-38.358033		-0.504118		109.515191		111.914408		-17.656598		-25.000000		-3.498987		48.032526		-27.501753		-3.117688		90.589864		115.800182		-43.227157		-16.197505		9.103078		
